<svg xmlns="http://www.w3.org/2000/svg" xmlns:xlink="http://www.w3.org/1999/xlink" width="586" zoomAndPan="magnify" viewBox="0 0 439.5 76.499998" height="102" preserveAspectRatio="xMidYMid meet" version="1.0"><defs><g/><clipPath id="1157bc933e"><path d="M 1.179688 0 L 65.578125 0 L 65.578125 75 L 1.179688 75 Z M 1.179688 0 " clip-rule="nonzero"/></clipPath></defs><g clip-path="url(#1157bc933e)"><path fill="#ffffff" d="M 58.03125 14.1875 C 57.636719 14.207031 57.171875 14.289062 56.632812 14.472656 C 56.621094 14.476562 56.609375 14.480469 56.597656 14.484375 C 56.394531 13.867188 56.078125 13.171875 55.589844 12.664062 C 54.640625 11.671875 53.335938 10.46875 51.640625 10.617188 C 51.433594 10.636719 51.242188 10.667969 51.0625 10.707031 C 51.777344 10.113281 52.671875 9.664062 53.664062 9.359375 C 53.722656 9.34375 53.777344 9.328125 53.835938 9.308594 C 54.800781 9.148438 56.03125 8.929688 57.242188 9.25 C 57.253906 9.253906 57.265625 9.253906 57.277344 9.257812 C 56.613281 9.539062 55.546875 9.882812 55.730469 11.035156 C 55.761719 11.257812 55.859375 11.761719 55.992188 12.046875 C 56.511719 13.136719 57.148438 13.820312 58.042969 14.089844 C 58.039062 14.121094 58.035156 14.15625 58.03125 14.1875 Z M 54.601562 15.667969 C 54.542969 15.695312 54.484375 15.722656 54.421875 15.746094 C 53.066406 16.128906 51.796875 16.066406 50.597656 16.015625 C 50.214844 15.933594 49.832031 15.863281 49.449219 15.808594 C 49.425781 15.796875 49.40625 15.785156 49.386719 15.773438 C 48.382812 15.234375 47.566406 15.226562 47.0625 15.625 C 46.425781 15.621094 45.800781 15.648438 45.203125 15.714844 C 46.027344 15.238281 46.8125 14.773438 47.5625 14.300781 C 48.320312 13.820312 48.875 13.265625 49.339844 12.714844 C 49.398438 12.695312 49.460938 12.679688 49.519531 12.660156 C 49.542969 12.652344 49.574219 12.644531 49.613281 12.636719 C 49.246094 13.203125 49.183594 13.730469 49.332031 14.1875 C 49.496094 15.132812 50.488281 15.835938 51.699219 16.015625 C 52.96875 16.207031 54.183594 15.285156 55.328125 15.214844 C 55.089844 15.386719 54.859375 15.546875 54.601562 15.667969 Z M 49.582031 12.417969 C 49.582031 12.421875 49.582031 12.425781 49.582031 12.429688 C 49.578125 12.429688 49.574219 12.429688 49.570312 12.433594 C 49.574219 12.429688 49.578125 12.421875 49.582031 12.417969 Z M 16.160156 17.535156 C 14.976562 17.730469 13.722656 17.949219 12.328125 17.738281 C 12.265625 17.722656 12.203125 17.703125 12.144531 17.683594 C 11.871094 17.59375 11.625 17.460938 11.367188 17.320312 C 12.511719 17.25 13.828125 18.015625 15.066406 17.671875 C 16.246094 17.34375 17.144531 16.523438 17.191406 15.566406 C 17.28125 15.09375 17.152344 14.578125 16.71875 14.0625 C 16.757812 14.066406 16.792969 14.066406 16.816406 14.070312 C 16.878906 14.082031 16.941406 14.09375 17.003906 14.105469 C 17.53125 14.59375 18.148438 15.078125 18.960938 15.460938 C 19.761719 15.839844 20.601562 16.199219 21.476562 16.570312 C 19.785156 16.597656 17.914062 16.917969 16.160156 17.535156 Z M 16.820312 18.441406 C 16.601562 18.300781 16.371094 18.234375 16.136719 18.238281 C 16.582031 18.070312 17.039062 17.925781 17.496094 17.800781 C 17.25 17.984375 17.019531 18.199219 16.820312 18.441406 Z M 10.015625 16.753906 C 10.003906 16.75 9.992188 16.746094 9.980469 16.746094 C 9.421875 16.628906 8.953125 16.605469 8.558594 16.636719 C 8.550781 16.601562 8.542969 16.570312 8.53125 16.535156 C 9.386719 16.160156 9.933594 15.402344 10.316406 14.257812 C 10.417969 13.960938 10.449219 13.445312 10.453125 13.222656 C 10.492188 12.054688 9.394531 11.847656 8.699219 11.648438 C 8.710938 11.644531 8.722656 11.640625 8.730469 11.636719 C 9.894531 11.167969 11.144531 11.234375 12.121094 11.277344 C 12.179688 11.285156 12.238281 11.296875 12.296875 11.308594 C 13.320312 11.488281 14.261719 11.820312 15.042969 12.324219 C 14.863281 12.304688 14.667969 12.300781 14.460938 12.304688 C 12.757812 12.367188 11.613281 13.71875 10.792969 14.820312 C 10.371094 15.386719 10.144531 16.117188 10.015625 16.753906 Z M 16.726562 13.839844 C 16.730469 13.84375 16.734375 13.847656 16.738281 13.851562 C 16.734375 13.851562 16.730469 13.851562 16.726562 13.851562 C 16.726562 13.847656 16.726562 13.84375 16.726562 13.839844 Z M 65.023438 10.847656 C 63.605469 10.835938 63.132812 10.285156 62.046875 9.105469 C 60.964844 7.929688 59.816406 7.519531 58.484375 7.875 C 57.667969 8.09375 57.441406 8.589844 57.375 8.917969 C 56.027344 8.585938 54.644531 8.890625 53.625 9.054688 C 53.601562 9.058594 53.574219 9.066406 53.550781 9.070312 C 52.5625 9.257812 51.664062 9.667969 50.855469 10.203125 C 51.050781 9.566406 51.136719 8.960938 51.160156 8.421875 C 51.171875 8.191406 51.167969 7.960938 51.15625 7.730469 C 51.195312 6.789062 51.246094 6.511719 51.546875 5.722656 C 51.6875 5.347656 51.816406 5.15625 51.964844 4.957031 C 51.996094 5.765625 52.335938 6.285156 52.847656 6.566406 C 53.597656 7.128906 54.785156 7.109375 55.871094 6.59375 C 57.742188 5.707031 58.015625 2.691406 60.53125 3.339844 C 60.359375 3.140625 58.941406 1.5625 57.359375 1.210938 C 55.902344 0.890625 53.996094 0.59375 52.558594 1.753906 C 51.273438 2.789062 51.070312 3.894531 51.796875 4.636719 C 51.5625 4.953125 51.324219 5.359375 51.121094 5.894531 C 51.058594 6.0625 51.003906 6.222656 50.957031 6.375 C 50.660156 5.199219 50.046875 4.117188 49.089844 3.398438 C 49.59375 2.519531 49.136719 1.511719 47.671875 0.804688 C 46.007812 0 44.21875 0.71875 42.875 1.363281 C 41.410156 2.0625 40.394531 3.902344 40.273438 4.136719 C 40.265625 4.148438 40.261719 4.160156 40.261719 4.160156 C 42.5625 2.960938 43.515625 5.828125 45.539062 6.269531 C 46.710938 6.523438 47.875 6.273438 48.476562 5.558594 C 48.910156 5.171875 49.125 4.589844 48.976562 3.796875 C 49.230469 4.027344 49.523438 4.320312 49.753906 4.664062 C 50.3125 5.496094 50.519531 5.859375 50.628906 7.226562 C 50.648438 7.457031 50.65625 7.699219 50.644531 7.957031 C 50.578125 9.65625 49.792969 11.828125 47.082031 13.546875 C 46.164062 14.125 42.527344 15.941406 42.210938 16.160156 C 41.78125 16.453125 40.601562 17.1875 40.144531 17.429688 C 40.035156 17.488281 39.929688 17.542969 39.824219 17.601562 C 41.050781 15.933594 41.605469 14.074219 41.464844 12.082031 C 41.554688 11.492188 41.730469 10.972656 41.929688 10.632812 C 42.109375 10.324219 42.246094 10.175781 42.40625 10.019531 C 42.316406 10.734375 42.542969 11.238281 42.953125 11.558594 C 43.527344 12.15625 44.574219 12.308594 45.597656 12.011719 C 47.363281 11.503906 48.035156 8.898438 50.144531 9.824219 C 50.023438 9.625 49.007812 8.042969 47.667969 7.507812 C 46.4375 7.019531 44.808594 6.484375 43.382812 7.296875 C 42.109375 8.023438 41.773438 8.960938 42.304688 9.714844 C 42.054688 9.960938 41.789062 10.285156 41.535156 10.722656 C 41.460938 10.847656 41.398438 10.96875 41.339844 11.085938 C 41.285156 10.777344 41.214844 10.464844 41.125 10.152344 C 40.722656 8.730469 40.085938 7.734375 39.394531 7.03125 C 40.136719 6.160156 39.832031 4.960938 38.34375 3.917969 C 36.675781 2.746094 34.601562 3.214844 33.027344 3.675781 C 31.3125 4.175781 29.871094 6.015625 29.695312 6.246094 C 32.410156 5.347656 32.933594 8.644531 35.054688 9.480469 C 36.546875 10.070312 38.152344 9.851562 38.792969 8.726562 C 38.980469 8.417969 39.085938 8.027344 39.085938 7.542969 C 39.652344 8.242188 40.144531 9.144531 40.476562 10.332031 C 41.414062 13.65625 40.441406 16.570312 37.59375 18.992188 C 36.722656 19.632812 35.988281 20.328125 35.421875 21.121094 C 35.453125 20.097656 35.183594 19.066406 34.519531 18.304688 C 35.019531 17.742188 34.839844 16.9375 33.886719 16.199219 C 32.796875 15.355469 31.382812 15.605469 30.304688 15.867188 C 29.128906 16.152344 28.101562 17.34375 27.972656 17.496094 C 29.835938 16.976562 30.085938 19.21875 31.488281 19.851562 C 32.304688 20.21875 33.191406 20.214844 33.738281 19.785156 C 34.113281 19.570312 34.359375 19.175781 34.375 18.578125 C 34.523438 18.785156 34.691406 19.042969 34.808594 19.332031 C 35.085938 20.023438 35.179688 20.320312 35.050781 21.328125 C 35.03125 21.5 34.996094 21.679688 34.953125 21.863281 C 34.636719 22.4375 34.398438 23.066406 34.242188 23.757812 C 33.636719 22.886719 32.871094 22.050781 32.027344 21.382812 C 31.003906 20.195312 29.703125 19.476562 28.21875 18.597656 C 27.589844 17.6875 27.28125 16.699219 27.230469 15.714844 C 27.222656 15.566406 27.222656 15.410156 27.226562 15.257812 C 27.3125 14.410156 27.371094 13.925781 27.808594 13.234375 C 28.023438 12.894531 28.183594 12.734375 28.371094 12.566406 C 28.238281 13.363281 28.472656 13.941406 28.917969 14.320312 C 29.539062 15.019531 30.707031 15.234375 31.875 14.945312 C 33.882812 14.449219 34.753906 11.550781 37.085938 12.683594 C 36.957031 12.453125 35.882812 10.625 34.402344 9.96875 C 33.039062 9.363281 31.230469 8.695312 29.589844 9.542969 C 28.125 10.304688 27.707031 11.347656 28.269531 12.21875 C 27.976562 12.480469 27.664062 12.835938 27.359375 13.316406 C 26.90625 14.039062 26.664062 14.566406 26.632812 15.410156 C 26.492188 16.316406 26.796875 17.066406 26.902344 17.355469 C 26.980469 17.554688 27.0625 17.753906 27.152344 17.949219 C 26.59375 17.59375 26.011719 17.203125 25.414062 16.742188 C 24.664062 16.167969 23.976562 15.5 23.476562 14.617188 C 23.945312 14.8125 24.363281 14.863281 24.730469 14.804688 C 26.007812 14.621094 26.800781 13.214844 26.800781 11.617188 C 26.804688 9.34375 23.941406 7.652344 25.769531 5.460938 C 25.492188 5.539062 23.257812 6.199219 22.164062 7.605469 C 21.160156 8.898438 19.964844 10.648438 20.4375 12.625 C 20.871094 14.425781 21.90625 15.136719 23.011719 14.710938 C 23.355469 15.347656 23.808594 15.902344 24.28125 16.410156 C 24.355469 16.492188 24.425781 16.570312 24.5 16.648438 C 24.148438 16.492188 20.324219 15.113281 19.34375 14.648438 C 16.445312 13.28125 15.394531 11.21875 15.121094 9.542969 C 15.082031 9.289062 15.058594 9.046875 15.046875 8.8125 C 14.988281 7.445312 15.148438 7.0625 15.601562 6.167969 C 15.789062 5.796875 16.042969 5.46875 16.265625 5.210938 C 16.214844 6.011719 16.5 6.566406 16.976562 6.898438 C 17.664062 7.535156 18.847656 7.636719 19.984375 7.238281 C 21.933594 6.550781 22.523438 3.582031 24.957031 4.488281 C 24.804688 4.273438 23.5625 2.558594 22.023438 2.042969 C 20.609375 1.570312 18.746094 1.074219 17.191406 2.078125 C 15.828125 2.960938 15.5 4.019531 16.105469 4.828125 C 15.238281 5.660156 14.765625 6.808594 14.617188 8.015625 C 14.40625 7.585938 14.179688 7.246094 13.953125 6.984375 C 14.609375 6.21875 14.339844 5.160156 13.027344 4.242188 C 11.558594 3.210938 9.730469 3.621094 8.339844 4.027344 C 6.828125 4.472656 5.558594 6.09375 5.40625 6.292969 C 7.800781 5.503906 8.261719 8.410156 10.128906 9.144531 C 11.21875 9.574219 12.371094 9.515625 13.058594 8.925781 C 13.535156 8.621094 13.835938 8.089844 13.8125 7.304688 C 13.96875 7.492188 14.105469 7.667969 14.265625 8.019531 C 14.660156 8.875 14.460938 9.441406 14.757812 10.515625 C 14.855469 10.921875 14.992188 11.355469 15.191406 11.800781 C 14.320312 11.363281 13.378906 11.070312 12.375 11.007812 C 12.351562 11.003906 12.324219 11 12.300781 11 C 11.265625 10.960938 9.855469 10.828125 8.558594 11.324219 C 8.457031 11.003906 8.167969 10.542969 7.332031 10.425781 C 5.964844 10.234375 4.875 10.78125 3.945312 12.085938 C 3.015625 13.386719 2.609375 13.992188 1.207031 14.179688 C 1.394531 14.480469 2.222656 15.761719 4.488281 16.433594 C 3.5625 17.242188 3.050781 18.457031 2.675781 19.472656 C 2.117188 20.996094 2.683594 23.039062 2.757812 23.292969 C 3.566406 20.824219 6.253906 22.21875 8.007812 21.121094 C 9.027344 20.484375 9.6875 19.492188 9.617188 18.5625 C 9.65625 17.980469 9.402344 17.410156 8.738281 16.949219 C 8.988281 16.929688 9.214844 16.925781 9.605469 17.007812 C 9.734375 17.035156 9.847656 17.066406 9.957031 17.101562 C 9.875 17.65625 9.867188 18.105469 9.867188 18.210938 C 9.867188 18.210938 9.886719 17.8125 10.242188 17.214844 C 10.246094 17.21875 10.25 17.21875 10.25 17.21875 C 9.90625 17.808594 9.867188 18.210938 9.867188 18.210938 C 10.128906 17.832031 10.417969 17.605469 10.722656 17.472656 C 11.089844 17.6875 11.46875 17.9375 12.070312 18.15625 C 12.09375 18.164062 12.109375 18.171875 12.132812 18.179688 C 12.792969 18.390625 13.429688 18.46875 14.066406 18.453125 C 13.410156 18.804688 12.746094 19.242188 12.238281 19.738281 C 12.148438 19.824219 12.0625 19.914062 11.988281 20.003906 C 11.296875 20.773438 10.476562 21.824219 10.09375 23.160156 C 9.777344 23.039062 9.246094 22.980469 8.636719 23.539062 C 7.617188 24.472656 7.347656 25.660156 7.757812 27.203125 C 8.167969 28.753906 8.378906 29.449219 7.625 30.652344 C 8.058594 30.710938 10.257812 30.964844 12.875 28.386719 C 14.5 26.78125 14.566406 25.402344 13.492188 23.679688 C 13.324219 23.414062 12.949219 23.0625 12.78125 22.914062 C 11.90625 22.140625 11.046875 22.855469 10.449219 23.265625 C 10.453125 23.253906 10.457031 23.242188 10.460938 23.230469 C 10.867188 21.953125 11.757812 21.058594 12.425781 20.3125 C 12.488281 20.261719 12.550781 20.210938 12.617188 20.164062 C 13.382812 19.558594 14.289062 19.03125 15.253906 18.601562 C 14.984375 18.820312 14.722656 19.144531 14.492188 19.574219 C 13.71875 20.996094 14.273438 22.589844 14.78125 23.792969 C 15.332031 25.105469 16.914062 26.078125 17.109375 26.195312 C 16.15625 24.128906 18.714844 23.417969 19.183594 21.667969 C 19.457031 20.652344 19.285156 19.625 18.6875 19.066406 C 18.363281 18.671875 17.863281 18.457031 17.164062 18.554688 C 17.375 18.34375 17.644531 18.101562 17.957031 17.910156 C 18.222656 17.75 18.4375 17.625 18.65625 17.53125 C 20.308594 17.214844 21.925781 17.195312 23.210938 17.550781 C 25.664062 18.230469 28.808594 19.597656 30.367188 21.707031 C 29.667969 21.179688 28.917969 20.941406 28.191406 20.808594 C 28.320312 19.863281 27.566406 19.15625 26.050781 19.09375 C 24.351562 19.023438 23.105469 20.285156 22.203125 21.320312 C 21.15625 22.523438 21.015625 24.636719 21.015625 24.636719 C 22.523438 22.78125 24.375 24.855469 26.246094 24.488281 C 27.445312 24.253906 28.40625 23.503906 28.523438 22.554688 C 28.652344 22.089844 28.5625 21.566406 28.171875 21.015625 C 28.210938 21.023438 28.242188 21.03125 28.265625 21.035156 C 28.878906 21.183594 29.75 21.601562 30.425781 22.085938 C 30.746094 22.34375 31.070312 22.636719 31.390625 22.957031 C 31.425781 23.003906 31.457031 23.050781 31.492188 23.097656 L 31.484375 23.113281 C 32.324219 24.496094 32.652344 25.695312 31.984375 28.097656 C 31.695312 29.148438 30.90625 30.445312 30.617188 32.335938 C 30.257812 34.664062 30.285156 36.648438 31.320312 38.796875 C 31.324219 38.800781 31.6875 39.808594 31.417969 40.175781 C 31.195312 40.476562 30.53125 40.621094 29.765625 40.558594 C 27.273438 40.347656 20.277344 41.949219 18.78125 46.566406 C 18.5 47.429688 18.511719 48.121094 18.714844 48.632812 C 18.78125 48.804688 18.796875 49.265625 18.679688 49.363281 C 18.277344 49.703125 17.742188 50.136719 17.972656 51.109375 C 18.101562 49.863281 19.28125 49.34375 19.265625 49.371094 C 20.714844 50.1875 23.867188 48.78125 24.640625 48.316406 C 24.65625 48.308594 25.839844 47.390625 26.53125 47.269531 C 25.757812 47.402344 24.453125 47.851562 24.394531 47.886719 C 23.152344 48.632812 20.429688 49.707031 19.46875 48.941406 C 19.289062 48.800781 19.34375 48.070312 19.457031 47.957031 C 21.066406 46.328125 23.890625 45.734375 23.921875 45.730469 C 23.804688 45.746094 21.386719 45.855469 19.644531 47.144531 C 19.476562 47.269531 19.261719 47.066406 19.351562 46.78125 C 19.5625 46.132812 19.949219 45.570312 20.371094 45.046875 C 20.378906 45.027344 21.390625 42.929688 26.90625 44.117188 C 25.699219 43.855469 24.746094 43.496094 23.914062 43.472656 C 23 43.449219 22.292969 43.539062 21.746094 43.6875 C 23.238281 42.59375 25.113281 41.800781 26.808594 41.535156 C 27.539062 41.421875 28.753906 41.558594 30.847656 42.441406 C 30.105469 41.6875 28.875 41.511719 28.417969 41.40625 C 28.269531 41.371094 28.226562 41.328125 28.277344 41.28125 C 28.988281 41.195312 29.605469 41.171875 30.058594 41.210938 C 31.019531 41.292969 31.679688 41.101562 32.011719 40.648438 C 32.125 40.496094 32.183594 40.332031 32.214844 40.167969 C 32.515625 40.660156 32.976562 41.269531 33.113281 41.828125 C 33.222656 42.277344 32.933594 42.609375 32.566406 43.035156 C 32.183594 43.476562 31.636719 43.71875 30.941406 43.753906 C 29.679688 43.820312 29.3125 43.722656 28.640625 43.351562 C 28.230469 43.121094 28.027344 43.007812 27.507812 42.796875 C 27.253906 42.691406 26.617188 42.203125 26.308594 42.042969 C 26.371094 42.074219 26.898438 42.628906 26.953125 42.683594 C 25.421875 42.3125 24.867188 42.722656 24.390625 42.777344 C 26.5 42.539062 27.609375 43.265625 28.339844 43.671875 C 29.042969 44.0625 29.5625 44.324219 30.96875 44.25 C 31.804688 44.207031 32.46875 43.90625 32.941406 43.359375 C 33.269531 42.984375 33.460938 42.542969 33.574219 42.125 C 33.757812 42.355469 33.914062 42.503906 34.039062 42.769531 C 34.535156 43.835938 33.59375 46.085938 28.355469 45.597656 C 28.09375 45.574219 27.632812 45.433594 27.09375 45.273438 C 25.445312 44.777344 23.109375 44.222656 21.726562 45.304688 C 22.878906 44.402344 25.292969 45.25 26.84375 45.71875 C 25.480469 45.894531 23.871094 46.421875 23.433594 47.480469 C 23.898438 46.355469 27.175781 46.125 28.328125 46.09375 C 30.804688 46.324219 32.292969 45.929688 33.1875 45.394531 C 32.191406 46.855469 29.15625 47.386719 28.273438 47.539062 C 25.996094 47.941406 25.546875 48.265625 24.046875 49.34375 C 23.386719 49.820312 22.1875 50.136719 21.054688 50.382812 C 20.316406 50.546875 19.480469 50.765625 18.847656 51.1875 C 17.765625 51.914062 17.101562 54.113281 16.914062 54.765625 C 16.742188 55.730469 16.890625 56.722656 17.285156 57.550781 C 17.464844 57.933594 18.183594 58.859375 18.933594 59.128906 C 16.800781 61.371094 20.722656 67.824219 23.675781 65.890625 C 23.738281 67.90625 24.988281 68.71875 26.667969 68.460938 C 26.6875 71.398438 30.390625 71.773438 31.292969 70.828125 C 30.617188 71.535156 26.898438 71.238281 27.164062 68.347656 C 28.421875 67.992188 28.976562 68.359375 29.710938 68.335938 C 29.773438 68.613281 30.035156 68.933594 30.3125 69.195312 C 30.480469 69.355469 30.570312 69.667969 30.269531 69.953125 C 29.957031 70.253906 29.359375 70.109375 29.101562 70.1875 C 29.113281 70.183594 30.597656 70.585938 30.707031 69.507812 C 30.890625 69.59375 31.289062 69.753906 31.476562 69.789062 C 32.328125 69.945312 33.714844 69.710938 34.367188 69.277344 C 35.261719 68.679688 36.105469 67.960938 36.707031 67.46875 C 36.910156 67.304688 37.253906 67.195312 37.515625 67.039062 C 37.933594 66.789062 38.019531 66.257812 38.089844 65.773438 C 38.039062 66.113281 37.625 66.871094 36.765625 67.109375 C 37.285156 66.191406 37.117188 65.382812 37.183594 65.007812 C 36.757812 67.421875 35.527344 67.980469 34.296875 68.800781 C 33.746094 69.164062 32.292969 69.429688 31.5625 69.296875 C 31.007812 69.195312 30.359375 68.765625 30.210938 68.277344 C 33.074219 67.511719 33.621094 65.601562 33.816406 65.421875 C 33.722656 65.507812 33.242188 66.054688 32.953125 66.328125 C 33.113281 66.03125 33.109375 65.113281 33.117188 65.003906 C 32.976562 66.945312 30.34375 68.25 28.617188 67.664062 C 29.699219 66.945312 29.230469 66.46875 30.605469 65.308594 C 30.503906 65.394531 29.679688 65.957031 29.597656 66.058594 C 29.953125 65.398438 29.8125 64.714844 29.695312 64.367188 C 29.808594 64.703125 29.324219 68.488281 25.457031 67.921875 C 24.527344 67.785156 23.71875 66.773438 24.21875 65.355469 C 24.386719 64.882812 24.601562 64.128906 24.792969 63.683594 C 24.613281 64.105469 23.988281 64.894531 23.660156 65.203125 C 23.199219 65.632812 22.242188 65.847656 21.582031 65.507812 C 20.1875 64.792969 18.898438 62.695312 18.824219 61.011719 C 18.796875 60.433594 19.382812 59.152344 20.066406 58.71875 C 19.515625 58.703125 18.363281 58.871094 17.734375 57.339844 C 17.34375 56.390625 17.25 55.265625 17.605469 54.195312 L 17.578125 54.1875 C 18.964844 50.273438 20.300781 51.535156 23.597656 50.121094 C 23.339844 50.597656 23.0625 51.132812 22.789062 51.695312 C 21.910156 51.8125 20.574219 53.128906 20.433594 53.300781 C 20.230469 53.550781 19.921875 54.164062 19.578125 54.5 C 19.078125 54.992188 18.488281 55.355469 18.425781 56.128906 C 18.457031 55.738281 19.28125 55.039062 19.71875 54.761719 C 19.554688 55.4375 19.679688 55.824219 19.933594 56.167969 C 19.523438 55.621094 20.351562 54.1875 20.816406 53.621094 C 21.15625 53.210938 21.964844 52.570312 22.5 52.300781 C 21.941406 53.511719 21.429688 54.769531 21.222656 55.757812 C 21.058594 56.476562 21.109375 57.261719 20.449219 57.6875 C 21.574219 57.238281 21.097656 55.910156 21.734375 55.53125 C 21.683594 56.238281 22.175781 56.617188 22.394531 56.816406 C 21.777344 57.015625 20.78125 59.148438 22.097656 61.191406 C 22.242188 61.417969 22.285156 61.84375 22.132812 62.261719 C 21.984375 62.679688 21.574219 63.148438 21.328125 63.242188 C 21.71875 63.097656 22.144531 62.925781 22.34375 62.363281 C 22.460938 62.03125 22.511719 61.691406 22.496094 61.390625 C 23.667969 61.480469 23.925781 60.796875 24.28125 60.082031 C 23.746094 61.167969 22.675781 61.230469 22.496094 61.019531 C 21.425781 59.773438 21.808594 57.222656 23.109375 57.148438 C 23.53125 57.125 23.933594 57.042969 24.269531 56.953125 C 23.8125 57.617188 23.726562 58.261719 23.832031 58.730469 C 23.734375 58.292969 24.542969 56.417969 25.660156 56.152344 C 25.652344 56.644531 25.953125 57.066406 26.09375 57.363281 C 25.894531 56.945312 25.773438 55.5625 25.957031 55.242188 C 25.203125 56.109375 24.242188 56.71875 23.320312 56.644531 C 22.96875 56.617188 21.765625 55.867188 22.308594 54.207031 C 22.449219 53.785156 22.578125 53.394531 22.78125 52.945312 C 23.679688 53.046875 24.964844 52.128906 26 51.449219 C 25.867188 51.734375 25.699219 52.75 25.648438 53.066406 C 25.773438 52.25 26.265625 51.464844 26.773438 50.816406 C 27.03125 50.523438 27.503906 49.992188 27.800781 49.789062 C 27.386719 50.074219 25.863281 51.105469 25.476562 51.371094 C 24.746094 51.875 24.101562 52.316406 23.480469 52.464844 C 23.304688 52.503906 23.097656 52.160156 23.191406 51.921875 C 24.632812 48.308594 27.355469 48.277344 29.554688 47.785156 C 29.417969 47.921875 28.707031 49 29.058594 50.390625 C 28.933594 49.890625 29.25 48.945312 29.492188 48.425781 C 30.019531 47.300781 32.25 47.085938 33.113281 46.183594 C 33.097656 46.671875 33.421875 47.011719 33.65625 47.324219 C 33.3125 46.863281 33.515625 45.730469 33.882812 45.339844 C 34.375 44.625 34.78125 44.132812 34.839844 43.515625 C 35.113281 43.777344 35.859375 44.242188 36.363281 44.488281 C 36.503906 44.554688 36.769531 44.941406 36.496094 45.429688 C 36.148438 46.039062 35.738281 46.695312 34.488281 47.414062 C 34.023438 47.679688 32.957031 48.167969 32.707031 48.292969 C 32.207031 48.535156 31.582031 48.496094 31.167969 48.417969 C 31.570312 48.523438 32.121094 48.65625 32.183594 48.667969 C 30.457031 49.574219 29.816406 50.777344 29.539062 53.085938 C 29.953125 49.664062 32.914062 48.859375 34.734375 47.847656 C 36.539062 46.84375 37.414062 45.660156 37.558594 44.863281 C 38.378906 45.070312 38.875 45.039062 39.847656 45.25 C 40.394531 45.371094 40.734375 46.191406 40.699219 46.40625 C 40.628906 46.835938 40.363281 47.953125 39.085938 48.589844 C 38.59375 48.835938 37.851562 49.3125 37.582031 49.894531 C 37.78125 49.460938 39.082031 49.097656 39.5 48.8125 C 41.5 47.445312 41.25 46.105469 41.269531 45.574219 C 41.773438 45.679688 42.335938 45.925781 42.800781 46.210938 C 43.527344 46.652344 44.347656 47.871094 43.464844 49.4375 C 42.5 51.148438 41.761719 50.941406 40.910156 50.703125 C 40.667969 50.636719 40.441406 50.328125 40.570312 50.195312 C 40.992188 49.753906 41.335938 49.160156 41.429688 48.546875 C 41.097656 50.011719 38.753906 50.789062 38.4375 50.964844 C 37.953125 50.707031 36.535156 50.230469 35.183594 50.316406 C 35.253906 50.023438 35.46875 49.535156 36.152344 49.21875 C 37.269531 48.695312 37.738281 48.183594 37.855469 47.421875 C 37.78125 47.886719 37.101562 48.464844 35.972656 48.992188 C 34.972656 49.457031 34.714844 50.003906 34.664062 50.378906 C 34.277344 50.445312 34.035156 50.445312 33.632812 50.636719 C 33.632812 50.636719 31.910156 50.066406 31.359375 51.074219 C 31.976562 50.441406 32.890625 50.726562 33.167969 50.886719 C 32.128906 51.648438 32.414062 53.171875 32.679688 53.90625 C 32.675781 53.886719 32.25 51.9375 33.53125 51.277344 C 34.992188 50.523438 36.484375 50.835938 37.375 51.164062 C 37.546875 51.226562 37.503906 51.632812 37.394531 51.796875 C 37.140625 52.171875 37.324219 52.472656 37.488281 52.855469 C 37.394531 52.632812 37.554688 50.984375 40.039062 51.039062 C 40.269531 51.042969 41.859375 50.984375 41.265625 52.34375 C 41.761719 52.226562 41.753906 51.414062 41.714844 51.355469 C 42.386719 51.367188 43.128906 51.050781 43.898438 49.683594 C 44.636719 48.375 44.382812 47.246094 43.9375 46.445312 C 44.976562 47.164062 45.4375 48.070312 45.410156 49.261719 C 45.378906 50.4375 45.148438 52.402344 42.246094 53.039062 C 42.117188 53.070312 39.242188 52.410156 38.589844 53.027344 C 38.9375 52.699219 41.808594 53.308594 42.023438 53.371094 C 41.925781 53.617188 41.125 54.019531 40.457031 54.625 C 41.507812 54.226562 42.085938 53.664062 42.359375 53.464844 C 42.957031 53.015625 44.429688 52.972656 45.683594 50.890625 C 45.632812 51.507812 45.496094 52.046875 45.300781 52.398438 C 44.503906 53.824219 43.171875 56.128906 37.472656 55.4375 C 36.964844 55.375 35.21875 54.703125 34.96875 53.871094 C 34.84375 53.464844 34.804688 52.84375 35.222656 52.355469 C 34.6875 52.984375 34.316406 53.433594 34.492188 54.015625 C 34.644531 54.53125 35.066406 54.933594 35.515625 55.230469 C 34.753906 55.160156 32.695312 55.425781 32.152344 55.21875 C 30.480469 54.585938 30.257812 53.128906 30.4375 52.523438 C 30.21875 53.261719 30.023438 53.84375 30.324219 54.390625 C 30.679688 55.03125 31.101562 55.289062 31.402344 55.410156 C 30.710938 55.578125 30.277344 55.785156 29.773438 56.050781 C 29.304688 56.3125 28.75 56.289062 28.359375 56.125 C 28.03125 55.984375 27.800781 55.695312 27.695312 55.289062 C 27.460938 54.40625 27.890625 53.207031 28.351562 52.445312 C 27.847656 53.285156 26.925781 54.328125 27.210938 55.414062 C 27.359375 55.976562 27.6875 56.378906 28.164062 56.582031 C 28.390625 56.679688 28.625 56.730469 28.878906 56.726562 C 28.460938 57.015625 26.039062 59.09375 25.6875 58.832031 C 25.507812 58.695312 25.417969 58.164062 25.4375 57.902344 C 25.410156 58.269531 25.289062 58.960938 25.601562 59.183594 C 25.992188 59.464844 26.378906 59.175781 26.753906 58.925781 C 26.648438 59.105469 26.542969 59.285156 26.445312 59.480469 C 26.121094 60.125 24.546875 62.222656 24.203125 62.785156 C 24.519531 62.265625 26.113281 60.871094 26.375 60.523438 C 25.960938 61.867188 26.398438 62.378906 26.292969 63.097656 C 26.214844 63.644531 26 63.996094 25.984375 64.5 C 25.996094 64.164062 26.402344 63.703125 26.613281 63.347656 C 26.929688 63.734375 27.566406 63.890625 28.207031 63.847656 C 27.601562 64.464844 27.351562 65.15625 27.292969 66.042969 C 27.339844 65.308594 28.199219 64.707031 28.789062 64.109375 C 28.988281 63.910156 29.265625 63.707031 29.464844 63.550781 C 29.890625 63.210938 30.179688 63.039062 30.464844 62.601562 C 30.550781 62.472656 30.804688 62.570312 30.902344 62.730469 C 31.144531 63.125 31.574219 63.277344 31.828125 63.652344 C 32.160156 64.144531 32.023438 64.59375 31.832031 65.058594 C 31.691406 65.394531 31.238281 66.105469 31.003906 66.378906 C 31.253906 66.085938 31.863281 65.59375 32.109375 65.226562 C 32.492188 64.648438 32.363281 64.167969 32.382812 63.523438 C 32.804688 63.542969 33.464844 63.410156 33.878906 63.15625 C 33.945312 63.113281 34.136719 63.226562 34.199219 63.316406 C 34.386719 63.605469 34.832031 63.902344 35.097656 64.125 C 35.347656 64.335938 36.042969 66.058594 32.730469 67.9375 C 33.640625 67.667969 34.675781 66.808594 34.792969 66.730469 C 34.679688 67.070312 34.398438 67.769531 34.0625 68.125 C 34.476562 67.6875 34.855469 67.554688 35.082031 66.570312 C 35.945312 65.683594 35.8125 64.808594 35.699219 64.066406 C 36.980469 64.082031 38.492188 63.453125 39.464844 62.511719 C 39.714844 63.589844 39.480469 64.792969 39.324219 65.476562 C 38.882812 67.394531 37.160156 68.574219 37.039062 68.859375 C 37.117188 68.679688 38.476562 67.800781 38.707031 67.597656 C 38.367188 68.625 37.695312 69.613281 36.9375 70.242188 C 35.117188 71.746094 33.464844 71.058594 33.351562 70.882812 C 33.542969 71.175781 33.855469 71.511719 34.257812 71.585938 C 33.957031 71.8125 33.554688 72.578125 33.324219 72.792969 C 33.695312 72.445312 34.058594 71.78125 34.863281 71.550781 C 35.597656 71.339844 36.808594 70.804688 37.21875 70.5 C 38.289062 69.707031 39.363281 67.894531 39.542969 66.621094 C 39.628906 66.394531 39.738281 65.875 39.808594 65.597656 C 40.007812 64.808594 40.261719 63.351562 39.867188 62.089844 C 40.769531 61.085938 41.203125 59.796875 41.527344 58.800781 C 40.855469 60.871094 38.417969 63.566406 36.035156 63.605469 C 34.617188 63.628906 34.449219 63.066406 34.535156 62.496094 C 34.640625 61.785156 36.304688 58.316406 36.78125 57.976562 C 35.390625 58.800781 34.320312 62.214844 33.664062 62.699219 C 33.164062 63.070312 32.585938 63.164062 32.074219 62.957031 C 31.582031 62.757812 30.914062 62.34375 30.988281 61.757812 C 31.0625 61.167969 31.347656 60.332031 31.511719 59.765625 C 31.832031 58.753906 32.355469 57.625 33.328125 56.839844 C 33.082031 57.039062 32.4375 57.148438 32.035156 58.019531 C 32.042969 57.800781 32.089844 56.972656 32.136719 56.804688 C 32.023438 57.203125 31.820312 58.011719 31.628906 58.378906 C 31.410156 58.792969 31.238281 59.367188 31.074219 59.890625 C 30.574219 61.589844 29.972656 63.242188 28.015625 63.371094 C 27.519531 63.402344 27.121094 63.3125 26.960938 62.992188 C 25.945312 60.964844 27.675781 58.441406 28.0625 58.046875 C 28.414062 57.679688 28.777344 57.257812 29.28125 56.929688 C 29.816406 56.613281 30.371094 56.3125 30.964844 56.09375 C 31.164062 56.023438 31.285156 56.140625 31.148438 56.269531 C 30.859375 56.542969 30.589844 56.859375 30.351562 57.210938 C 29.871094 57.921875 29.425781 58.808594 29.308594 59.574219 C 29.003906 59.894531 28.585938 60.546875 28.535156 60.996094 C 28.59375 60.496094 29.199219 60.164062 29.46875 59.886719 C 29.46875 60.183594 29.675781 60.636719 29.726562 60.949219 C 29.558594 59.894531 30.03125 58.578125 30.765625 57.488281 C 31.425781 56.507812 32.230469 56.085938 33.183594 55.867188 C 34.320312 55.761719 35.386719 55.644531 36.25 55.820312 C 35.207031 56.296875 34.691406 56.933594 33.6875 58.542969 C 33.496094 58.851562 32.4375 60.695312 32.210938 61.0625 C 32.394531 60.769531 33.777344 58.742188 34.015625 58.519531 C 34.019531 58.714844 33.976562 60.472656 34.058594 60.621094 C 34.054688 59.503906 34.058594 58.191406 35.316406 57.097656 C 35.824219 56.65625 36.726562 56.113281 37.457031 56.125 C 38.207031 56.132812 39.121094 56.21875 39.949219 56.28125 C 38.8125 56.867188 38.074219 58.359375 37.652344 58.746094 C 37.113281 59.242188 36.667969 59.988281 36.402344 60.570312 C 36.574219 60.195312 37.46875 59.308594 37.875 59.015625 C 37.757812 59.449219 37.976562 60.886719 37.980469 61.25 C 38.050781 58.59375 38.394531 58.445312 38.996094 57.675781 C 39.355469 57.214844 40.175781 56.539062 40.832031 56.402344 C 41.804688 56.199219 42.625 56.222656 43.53125 55.890625 C 44.03125 57.164062 43.40625 58.589844 42.664062 59.730469 C 43.410156 58.582031 44.65625 57.417969 44.058594 55.902344 C 44.332031 55.773438 44.660156 55.472656 44.914062 55.292969 C 44.855469 55.792969 44.972656 58.386719 44.820312 58.859375 C 44.570312 59.648438 44.1875 60.203125 43.710938 60.820312 C 43 61.46875 42.21875 62.300781 40.933594 62.050781 C 40.933594 62.050781 41.859375 62.558594 42.824219 62.085938 C 42.207031 63.207031 41.601562 64.902344 41.878906 66.335938 C 41.769531 67.328125 41.25 68.65625 40.449219 69.507812 C 40.097656 69.882812 39.53125 70.570312 38.839844 70.554688 C 39.53125 70.570312 40.328125 70.355469 40.929688 69.710938 C 40.886719 70.148438 41.160156 70.90625 41.636719 71.164062 C 41.390625 71.78125 40.128906 72.390625 38.90625 72.746094 C 38.164062 72.957031 37.539062 73.054688 36.875 73.058594 C 36.515625 73.058594 35.59375 73.058594 35.269531 72.933594 C 35.429688 72.996094 35.835938 73.175781 36.410156 73.300781 C 33.320312 74.550781 31.183594 72.839844 31.183594 72.839844 C 34.046875 75.261719 36.847656 73.394531 36.847656 73.394531 L 36.839844 73.378906 C 37.460938 73.464844 38.21875 73.464844 39.042969 73.222656 C 39.824219 72.992188 41.515625 72.417969 42.027344 71.5 C 42.621094 71.917969 43.402344 72.140625 44.132812 72.0625 C 46.507812 71.8125 49.265625 69.199219 48.878906 67.46875 C 48.476562 69.414062 46.105469 71.351562 44.082031 71.566406 C 43.210938 71.660156 42.222656 71.226562 41.78125 70.554688 C 41.554688 70.214844 41.261719 69.597656 41.660156 68.882812 C 41.996094 68.289062 42.132812 67.585938 42.269531 66.988281 C 42.449219 67.160156 43.507812 67.363281 43.820312 67.125 C 43.542969 67.285156 42.359375 66.796875 42.367188 66.003906 C 42.398438 61.664062 44.570312 61.5 45.417969 58.832031 C 45.578125 58.324219 45.6875 57.375 45.671875 56.824219 C 46.34375 57.386719 47.597656 58.554688 46.53125 60.878906 C 46.585938 60.753906 47.226562 59.890625 47.34375 58.71875 C 47.671875 58.976562 47.679688 60.304688 47.675781 60.507812 C 47.703125 59.960938 47.871094 59.214844 47.671875 58.78125 C 46.761719 56.8125 45.765625 56.410156 45.691406 56.113281 C 45.59375 55.742188 45.429688 54.886719 45.640625 54.460938 C 45.78125 54.289062 46.53125 53.195312 46.660156 52.9375 C 47.019531 53.933594 47.546875 54.773438 47.882812 55.257812 C 48.59375 56.277344 49.292969 56.820312 49.644531 57.613281 C 50.082031 58.613281 49.523438 59.003906 49.015625 59.707031 C 48.546875 60.359375 47.878906 61.761719 47.644531 62.476562 C 47.574219 62.535156 46.53125 63.488281 46.835938 64.125 C 46.6875 63.816406 47.347656 63.230469 47.667969 62.957031 C 47.660156 63.386719 47.894531 63.945312 48.144531 64.378906 C 47.199219 62.75 49.078125 60.132812 49.664062 59.558594 C 49.796875 59.425781 50.304688 59.34375 50.453125 59.523438 C 50.757812 59.890625 51.695312 60.765625 51.996094 62.199219 C 52.132812 62.847656 51.734375 64.800781 51.449219 65.332031 C 51.640625 64.976562 52.105469 63.863281 52.210938 63.546875 C 52.378906 63.785156 52.816406 64.53125 52.960938 64.683594 C 52.765625 64.476562 52.472656 63.277344 52.441406 62.882812 C 52.210938 60.289062 50.753906 59.6875 50.496094 58.605469 C 50.214844 57.4375 50.0625 57.277344 49.355469 56.308594 C 48.691406 55.394531 51.417969 55.464844 52.660156 56.6875 C 53.308594 57.320312 54.140625 58.78125 52.832031 59.113281 C 52.011719 59.324219 51.679688 57.570312 50.902344 57.28125 C 51.324219 57.4375 51.417969 58.097656 51.628906 58.578125 C 52.046875 59.523438 53.105469 59.757812 53.71875 58.914062 C 53.921875 59.609375 53.761719 59.953125 53.507812 61.003906 C 53.558594 60.796875 53.976562 60.363281 54.03125 59.816406 C 54.074219 60.023438 54.410156 60.835938 54.449219 61.042969 C 54.300781 60.277344 54.351562 59.246094 54.117188 58.5 C 54.539062 58.746094 55.058594 58.84375 55.621094 58.753906 C 56.046875 58.683594 56.398438 58.324219 56.851562 58.207031 C 57.03125 58.160156 57.957031 58.144531 58.148438 58.164062 C 58.089844 58.15625 57.339844 57.769531 57.285156 57.761719 C 57.535156 57.425781 57.453125 56.996094 57.472656 56.496094 C 57.453125 56.992188 56.972656 58.175781 55.542969 58.261719 C 53.847656 58.363281 53.285156 56.675781 53.054688 56.378906 C 52.71875 55.953125 52.347656 55.667969 51.953125 55.480469 C 52.792969 55.085938 53.183594 54.101562 53.714844 53.210938 C 52.164062 55.820312 48.949219 55.21875 48.253906 54.457031 C 47.628906 53.777344 47.203125 52.792969 47.226562 52.039062 C 47.242188 51.394531 50.738281 50.972656 51.242188 51.011719 C 50.566406 51.410156 49.78125 51.96875 49.269531 52.554688 C 48.996094 52.863281 48.515625 53.328125 48.527344 54.0625 C 48.523438 53.832031 49.414062 52.636719 49.777344 52.398438 C 49.03125 53.554688 49.507812 53.902344 49.511719 54.199219 C 49.484375 52.726562 50.519531 51.371094 52.367188 51.335938 C 53.503906 51.3125 55.078125 51.738281 55.886719 52.609375 C 56.757812 53.550781 55.730469 56.058594 54.839844 56.425781 C 56.050781 55.921875 56.785156 54.480469 56.621094 53.25 C 57.113281 53.71875 59.363281 55.171875 59.03125 58.203125 C 58.777344 59.226562 58.296875 60.238281 57.625 60.457031 C 56.609375 60.792969 55.679688 60.078125 55.566406 59.433594 C 55.621094 59.898438 55.882812 60.296875 56.128906 60.546875 C 55.628906 60.710938 55.34375 60.386719 55.035156 60.113281 C 55.511719 61.03125 57.1875 61.085938 57.386719 61.054688 C 57.460938 61.496094 56.652344 62.59375 56.332031 62.917969 C 55.265625 64.007812 53.761719 63.328125 53.671875 62.949219 C 53.882812 63.84375 55.277344 63.949219 55.664062 63.820312 C 55.800781 64.632812 55.644531 65.367188 55.210938 65.914062 C 54.664062 66.605469 53.714844 66.820312 52.476562 66.925781 C 50.3125 67.109375 50.054688 65.449219 50.089844 65.109375 C 50.203125 63.921875 50.097656 62.605469 49.875 61.347656 C 50.085938 62.539062 49.867188 63.769531 49.585938 64.941406 C 49.386719 65.769531 48.46875 66.242188 47.261719 66.179688 C 45.082031 66.066406 43.914062 62.78125 45.148438 61.332031 C 44.425781 62.183594 44.023438 63.082031 44.359375 64.167969 C 44.683594 65.199219 45.464844 66.070312 46.425781 66.496094 C 45.839844 66.785156 45.210938 67.289062 44.777344 67.773438 C 44.371094 68.265625 44.015625 69.375 43.0625 70.015625 C 43.332031 69.832031 44.371094 69.210938 44.566406 68.933594 C 44.585938 69.238281 44.875 69.382812 45.148438 69.683594 C 44.777344 69.277344 44.863281 68.761719 45.101562 68.269531 C 45.8125 66.804688 48.535156 66.917969 49.597656 65.828125 C 49.863281 67.136719 51.46875 67.371094 52.257812 67.414062 C 52.558594 67.507812 52.6875 67.753906 52.289062 68.65625 C 51.042969 71.476562 47.847656 70.925781 47.847656 70.925781 C 52.300781 71.878906 53.183594 68.179688 53.324219 67.386719 C 54.542969 67.234375 55.230469 66.695312 55.601562 66.222656 C 56.148438 65.535156 56.574219 64.46875 56.375 63.472656 C 56.6875 63.253906 57.867188 62.394531 58.035156 60.890625 C 61.707031 56.996094 57.972656 53.140625 56.703125 52.414062 C 53.5625 50.609375 51.015625 50.039062 47.835938 50.679688 C 47.617188 50.773438 47.347656 50.332031 47.34375 49.984375 C 47.320312 48.480469 46.746094 47.050781 45.761719 45.9375 C 44.523438 44.53125 43.027344 44.28125 41.347656 43.703125 C 38.636719 42.777344 35.808594 40.734375 34.632812 38.03125 C 34.15625 36.933594 33.6875 33.527344 33.957031 32.371094 C 34.238281 31.171875 34.804688 29.953125 35.15625 28.730469 C 35.652344 27.023438 34.820312 25.078125 36.382812 23.785156 C 36.691406 23.53125 36.894531 23.425781 37.121094 23.324219 C 36.75 24.042969 36.792969 24.667969 37.097656 25.164062 C 37.472656 26.019531 38.515625 26.589844 39.71875 26.675781 C 41.78125 26.828125 43.503906 24.339844 45.375 26.140625 C 45.320312 25.882812 44.867188 23.8125 43.660156 22.726562 C 42.554688 21.730469 41.042969 20.53125 39.21875 20.832031 C 37.589844 21.097656 36.867188 21.960938 37.136719 22.964844 C 36.773438 23.125 36.367188 23.363281 35.929688 23.726562 C 35.835938 23.804688 35.746094 23.878906 35.664062 23.957031 C 36.375 21.222656 38.648438 19.539062 40.90625 18.28125 C 41.304688 18.058594 43.351562 17.003906 43.601562 16.902344 C 44.300781 16.613281 45.117188 16.429688 46 16.34375 C 46.175781 16.355469 46.3125 16.382812 46.457031 16.417969 C 45.78125 16.734375 45.460938 17.214844 45.40625 17.746094 C 45.199219 18.582031 45.640625 19.585938 46.46875 20.324219 C 47.890625 21.589844 50.546875 20.742188 50.902344 23.105469 C 51.007812 22.890625 51.835938 21.121094 51.566406 19.652344 C 51.386719 18.683594 51.117188 17.523438 50.421875 16.644531 C 51.871094 16.960938 53.273438 17.484375 54.4375 18.1875 C 54.507812 18.230469 54.574219 18.269531 54.644531 18.3125 C 55.398438 18.972656 56.394531 19.75 56.953125 20.96875 C 56.957031 20.980469 56.964844 20.988281 56.96875 21 C 56.328125 20.667969 55.386719 20.0625 54.613281 20.9375 C 54.464844 21.105469 54.132812 21.5 54 21.785156 C 53.144531 23.628906 53.382812 24.992188 55.191406 26.378906 C 58.105469 28.617188 60.257812 28.09375 60.679688 27.984375 C 59.785156 26.882812 59.90625 26.164062 60.125 24.578125 C 60.34375 22.996094 59.925781 21.851562 58.800781 21.050781 C 58.128906 20.570312 57.609375 20.695312 57.308594 20.851562 C 56.765625 19.574219 55.820312 18.632812 55.042969 17.953125 C 54.953125 17.871094 54.859375 17.796875 54.761719 17.71875 C 54.195312 17.289062 53.480469 16.9375 52.785156 16.667969 C 53.421875 16.609375 54.042969 16.453125 54.671875 16.160156 C 54.695312 16.148438 54.710938 16.140625 54.730469 16.128906 C 55.300781 15.835938 55.648438 15.542969 55.984375 15.285156 C 56.304688 15.378906 56.617188 15.566406 56.925781 15.914062 C 56.914062 15.808594 56.851562 15.363281 56.699219 14.824219 C 56.804688 14.777344 56.914062 14.730469 57.035156 14.6875 C 57.414062 14.558594 57.640625 14.535156 57.890625 14.519531 C 57.289062 15.0625 57.105469 15.660156 57.21875 16.230469 C 57.261719 17.164062 58.039062 18.066406 59.128906 18.574219 C 61.003906 19.449219 63.5 17.734375 64.605469 20.082031 C 64.648438 19.820312 64.960938 17.722656 64.21875 16.28125 C 63.722656 15.316406 63.0625 14.179688 62.042969 13.488281 C 64.210938 12.542969 64.878906 11.167969 65.023438 10.847656 " fill-opacity="1" fill-rule="nonzero"/></g><g fill="#ffffff" fill-opacity="1"><g transform="translate(73.701524, 45.965023)"><g><path d="M 16.984375 -24.484375 C 17.347656 -24.078125 17.597656 -23.539062 17.734375 -22.875 C 17.878906 -22.207031 17.953125 -21.597656 17.953125 -21.046875 C 17.953125 -20.515625 17.90625 -20.066406 17.8125 -19.703125 C 17.71875 -19.335938 17.5 -19.15625 17.15625 -19.15625 C 16.96875 -19.15625 16.804688 -19.203125 16.671875 -19.296875 C 16.535156 -19.398438 16.382812 -19.582031 16.21875 -19.84375 C 15.976562 -20.257812 15.675781 -20.785156 15.3125 -21.421875 C 14.945312 -22.066406 14.507812 -22.640625 14 -23.140625 C 13.539062 -23.609375 12.988281 -24.007812 12.34375 -24.34375 C 11.707031 -24.6875 10.929688 -24.859375 10.015625 -24.859375 C 9.023438 -24.859375 8.160156 -24.640625 7.421875 -24.203125 C 6.679688 -23.765625 6.109375 -23.210938 5.703125 -22.546875 C 5.304688 -21.878906 5.109375 -21.160156 5.109375 -20.390625 C 5.109375 -19.710938 5.253906 -19.09375 5.546875 -18.53125 C 5.835938 -17.976562 6.226562 -17.5 6.71875 -17.09375 C 7.394531 -16.53125 8.242188 -16.078125 9.265625 -15.734375 C 10.296875 -15.398438 11.394531 -15.054688 12.5625 -14.703125 C 13.738281 -14.359375 14.847656 -13.859375 15.890625 -13.203125 C 16.953125 -12.554688 17.722656 -11.773438 18.203125 -10.859375 C 18.691406 -9.953125 18.9375 -8.929688 18.9375 -7.796875 C 18.9375 -6.566406 18.65625 -5.441406 18.09375 -4.421875 C 17.539062 -3.410156 16.84375 -2.539062 16 -1.8125 C 15.15625 -1.082031 14.21875 -0.53125 13.1875 -0.15625 C 12.15625 0.21875 10.960938 0.40625 9.609375 0.40625 C 7.992188 0.40625 6.5 0.148438 5.125 -0.359375 C 3.757812 -0.867188 2.828125 -1.570312 2.328125 -2.46875 C 2.078125 -2.945312 1.914062 -3.441406 1.84375 -3.953125 C 1.769531 -4.460938 1.710938 -4.984375 1.671875 -5.515625 C 1.640625 -5.710938 1.617188 -5.898438 1.609375 -6.078125 C 1.597656 -6.253906 1.59375 -6.46875 1.59375 -6.71875 C 1.59375 -7.050781 1.671875 -7.285156 1.828125 -7.421875 C 1.984375 -7.554688 2.160156 -7.625 2.359375 -7.625 C 2.617188 -7.625 2.835938 -7.5 3.015625 -7.25 C 3.179688 -7.0625 3.363281 -6.753906 3.5625 -6.328125 C 3.769531 -5.910156 4.019531 -5.484375 4.3125 -5.046875 C 4.632812 -4.585938 5.066406 -4.0625 5.609375 -3.46875 C 6.148438 -2.875 6.828125 -2.351562 7.640625 -1.90625 C 8.453125 -1.457031 9.425781 -1.234375 10.5625 -1.234375 C 11.738281 -1.234375 12.769531 -1.46875 13.65625 -1.9375 C 14.539062 -2.414062 15.238281 -3.054688 15.75 -3.859375 C 16.257812 -4.671875 16.515625 -5.570312 16.515625 -6.5625 C 16.515625 -7.457031 16.335938 -8.21875 15.984375 -8.84375 C 15.628906 -9.476562 15.148438 -10 14.546875 -10.40625 C 13.847656 -10.894531 13.050781 -11.285156 12.15625 -11.578125 C 11.257812 -11.867188 10.332031 -12.148438 9.375 -12.421875 C 8.425781 -12.703125 7.507812 -13.039062 6.625 -13.4375 C 5.738281 -13.84375 4.945312 -14.40625 4.25 -15.125 C 3.8125 -15.582031 3.441406 -16.148438 3.140625 -16.828125 C 2.835938 -17.503906 2.6875 -18.28125 2.6875 -19.15625 C 2.6875 -20.507812 3.050781 -21.722656 3.78125 -22.796875 C 4.519531 -23.878906 5.53125 -24.738281 6.8125 -25.375 C 8.101562 -26.019531 9.546875 -26.34375 11.140625 -26.34375 C 12.398438 -26.34375 13.570312 -26.171875 14.65625 -25.828125 C 15.75 -25.492188 16.523438 -25.046875 16.984375 -24.484375 Z M 16.984375 -24.484375 "/></g></g></g><g fill="#ffffff" fill-opacity="1"><g transform="translate(94.630736, 45.965023)"><g><path d="M 19.953125 -18.390625 C 19.953125 -18.171875 19.882812 -18.019531 19.75 -17.9375 C 19.625 -17.851562 19.453125 -17.738281 19.234375 -17.59375 C 18.890625 -17.351562 18.613281 -17.128906 18.40625 -16.921875 C 18.207031 -16.710938 17.972656 -16.429688 17.703125 -16.078125 C 17.515625 -15.804688 17.300781 -15.445312 17.0625 -15 C 16.832031 -14.550781 16.625 -14.097656 16.4375 -13.640625 C 16.269531 -13.304688 16.019531 -12.75 15.6875 -11.96875 C 15.363281 -11.195312 14.992188 -10.304688 14.578125 -9.296875 C 14.171875 -8.296875 13.742188 -7.265625 13.296875 -6.203125 C 12.847656 -5.140625 12.4375 -4.140625 12.0625 -3.203125 C 11.6875 -2.273438 11.367188 -1.507812 11.109375 -0.90625 C 10.742188 -0.03125 10.335938 0.859375 9.890625 1.765625 C 9.441406 2.671875 8.925781 3.507812 8.34375 4.28125 C 7.757812 5.050781 7.082031 5.679688 6.3125 6.171875 C 5.851562 6.460938 5.394531 6.671875 4.9375 6.796875 C 4.476562 6.929688 4.066406 7 3.703125 7 C 2.929688 7 2.320312 6.78125 1.875 6.34375 C 1.425781 5.914062 1.203125 5.300781 1.203125 4.5 C 1.203125 4.113281 1.285156 3.78125 1.453125 3.5 C 1.617188 3.21875 1.894531 3.078125 2.28125 3.078125 C 2.59375 3.078125 2.863281 3.191406 3.09375 3.421875 C 3.332031 3.648438 3.59375 3.878906 3.875 4.109375 C 4.164062 4.347656 4.539062 4.46875 5 4.46875 C 5.414062 4.46875 5.796875 4.332031 6.140625 4.0625 C 6.492188 3.800781 6.816406 3.5 7.109375 3.15625 C 7.453125 2.769531 7.78125 2.300781 8.09375 1.75 C 8.40625 1.207031 8.644531 0.734375 8.8125 0.328125 C 8.882812 0.128906 8.921875 0.0078125 8.921875 -0.03125 C 8.921875 -0.0820312 8.898438 -0.179688 8.859375 -0.328125 L 3.765625 -13.640625 C 3.484375 -14.367188 3.210938 -15.050781 2.953125 -15.6875 C 2.703125 -16.332031 2.40625 -16.8125 2.0625 -17.125 C 1.894531 -17.289062 1.734375 -17.414062 1.578125 -17.5 C 1.421875 -17.582031 1.257812 -17.675781 1.09375 -17.78125 C 0.914062 -17.875 0.785156 -17.957031 0.703125 -18.03125 C 0.617188 -18.101562 0.578125 -18.210938 0.578125 -18.359375 C 0.578125 -18.742188 0.925781 -18.9375 1.625 -18.9375 L 6.828125 -18.9375 C 7.359375 -18.9375 7.625 -18.742188 7.625 -18.359375 C 7.625 -18.085938 7.488281 -17.894531 7.21875 -17.78125 C 6.957031 -17.675781 6.691406 -17.523438 6.421875 -17.328125 C 6.148438 -17.140625 6.015625 -16.796875 6.015625 -16.296875 C 6.015625 -16.046875 6.0625 -15.710938 6.15625 -15.296875 C 6.257812 -14.890625 6.429688 -14.347656 6.671875 -13.671875 C 6.816406 -13.265625 7.03125 -12.695312 7.3125 -11.96875 C 7.59375 -11.25 7.898438 -10.460938 8.234375 -9.609375 C 8.578125 -8.765625 8.90625 -7.941406 9.21875 -7.140625 C 9.53125 -6.347656 9.796875 -5.660156 10.015625 -5.078125 C 10.234375 -4.492188 10.378906 -4.117188 10.453125 -3.953125 C 10.472656 -3.878906 10.507812 -3.84375 10.5625 -3.84375 C 10.632812 -3.84375 10.679688 -3.878906 10.703125 -3.953125 C 10.796875 -4.171875 10.984375 -4.632812 11.265625 -5.34375 C 11.546875 -6.0625 11.882812 -6.921875 12.28125 -7.921875 C 12.675781 -8.929688 13.066406 -9.96875 13.453125 -11.03125 C 13.921875 -12.238281 14.289062 -13.234375 14.5625 -14.015625 C 14.84375 -14.804688 14.984375 -15.441406 14.984375 -15.921875 C 14.984375 -16.378906 14.894531 -16.726562 14.71875 -16.96875 C 14.550781 -17.21875 14.351562 -17.398438 14.125 -17.515625 C 13.894531 -17.640625 13.691406 -17.753906 13.515625 -17.859375 C 13.335938 -17.972656 13.25 -18.140625 13.25 -18.359375 C 13.25 -18.742188 13.5625 -18.9375 14.1875 -18.9375 L 18.9375 -18.9375 C 19.613281 -18.9375 19.953125 -18.753906 19.953125 -18.390625 Z M 19.953125 -18.390625 "/></g></g></g><g fill="#ffffff" fill-opacity="1"><g transform="translate(115.052129, 45.965023)"><g><path d="M 20.46875 -1.265625 C 20.851562 -1.097656 21.046875 -0.878906 21.046875 -0.609375 C 21.046875 -0.367188 20.953125 -0.207031 20.765625 -0.125 C 20.585938 -0.0390625 20.378906 0 20.140625 0 L 14.765625 0 C 14.523438 0 14.316406 -0.0390625 14.140625 -0.125 C 13.972656 -0.207031 13.890625 -0.367188 13.890625 -0.609375 C 13.890625 -0.878906 14.070312 -1.097656 14.4375 -1.265625 C 14.601562 -1.335938 14.789062 -1.441406 15 -1.578125 C 15.207031 -1.710938 15.367188 -1.890625 15.484375 -2.109375 C 15.660156 -2.367188 15.800781 -2.765625 15.90625 -3.296875 C 16.019531 -3.828125 16.078125 -4.722656 16.078125 -5.984375 L 16.078125 -12.15625 C 16.078125 -13.726562 15.71875 -14.929688 15 -15.765625 C 14.289062 -16.597656 13.242188 -17.015625 11.859375 -17.015625 C 11.285156 -17.015625 10.707031 -16.910156 10.125 -16.703125 C 9.539062 -16.503906 9.019531 -16.171875 8.5625 -15.703125 C 8.082031 -15.222656 7.710938 -14.625 7.453125 -13.90625 C 7.203125 -13.195312 7.035156 -12.222656 6.953125 -10.984375 C 6.867188 -9.753906 6.828125 -8.085938 6.828125 -5.984375 C 6.828125 -4.722656 6.878906 -3.828125 6.984375 -3.296875 C 7.085938 -2.765625 7.226562 -2.367188 7.40625 -2.109375 C 7.519531 -1.890625 7.6875 -1.710938 7.90625 -1.578125 C 8.125 -1.441406 8.304688 -1.335938 8.453125 -1.265625 C 8.816406 -1.097656 9 -0.878906 9 -0.609375 C 9 -0.203125 8.707031 0 8.125 0 L 2.796875 0 C 2.578125 0 2.375 -0.0390625 2.1875 -0.125 C 2.007812 -0.207031 1.921875 -0.367188 1.921875 -0.609375 C 1.921875 -0.878906 2.101562 -1.097656 2.46875 -1.265625 C 2.632812 -1.335938 2.828125 -1.441406 3.046875 -1.578125 C 3.265625 -1.710938 3.4375 -1.890625 3.5625 -2.109375 C 3.726562 -2.367188 3.863281 -2.765625 3.96875 -3.296875 C 4.082031 -3.828125 4.140625 -4.722656 4.140625 -5.984375 L 4.140625 -13.09375 C 4.140625 -13.988281 4.117188 -14.675781 4.078125 -15.15625 C 4.046875 -15.644531 3.921875 -16.023438 3.703125 -16.296875 C 3.578125 -16.460938 3.414062 -16.582031 3.21875 -16.65625 C 3.03125 -16.726562 2.804688 -16.800781 2.546875 -16.875 C 2.347656 -16.914062 2.171875 -16.976562 2.015625 -17.0625 C 1.859375 -17.15625 1.78125 -17.3125 1.78125 -17.53125 C 1.78125 -17.71875 1.832031 -17.863281 1.9375 -17.96875 C 2.050781 -18.082031 2.300781 -18.1875 2.6875 -18.28125 C 3.238281 -18.40625 3.738281 -18.546875 4.1875 -18.703125 C 4.632812 -18.859375 5.066406 -19.019531 5.484375 -19.1875 C 5.703125 -19.289062 5.90625 -19.34375 6.09375 -19.34375 C 6.363281 -19.34375 6.550781 -19.257812 6.65625 -19.09375 C 6.769531 -18.9375 6.828125 -18.738281 6.828125 -18.5 L 6.828125 -16.140625 C 6.828125 -16.023438 6.847656 -15.96875 6.890625 -15.96875 C 6.941406 -15.96875 7.003906 -16.023438 7.078125 -16.140625 C 7.609375 -16.921875 8.359375 -17.648438 9.328125 -18.328125 C 10.296875 -19.003906 11.503906 -19.34375 12.953125 -19.34375 C 13.898438 -19.34375 14.738281 -19.175781 15.46875 -18.84375 C 16.207031 -18.519531 16.832031 -18.082031 17.34375 -17.53125 C 18 -16.820312 18.414062 -15.976562 18.59375 -15 C 18.769531 -14.019531 18.859375 -13.097656 18.859375 -12.234375 L 18.859375 -5.984375 C 18.859375 -4.722656 18.90625 -3.828125 19 -3.296875 C 19.101562 -2.765625 19.238281 -2.367188 19.40625 -2.109375 C 19.53125 -1.890625 19.691406 -1.710938 19.890625 -1.578125 C 20.097656 -1.441406 20.289062 -1.335938 20.46875 -1.265625 Z M 20.46875 -1.265625 "/></g></g></g><g fill="#ffffff" fill-opacity="1"><g transform="translate(137.432238, 45.965023)"><g><path d="M 4.9375 -11.9375 C 4.9375 -11.71875 5.046875 -11.609375 5.265625 -11.609375 L 11.75 -11.609375 C 12.863281 -11.609375 13.695312 -11.757812 14.25 -12.0625 C 14.8125 -12.363281 15.09375 -12.988281 15.09375 -13.9375 C 15.09375 -14.539062 14.921875 -15.144531 14.578125 -15.75 C 14.242188 -16.351562 13.742188 -16.859375 13.078125 -17.265625 C 12.410156 -17.679688 11.59375 -17.890625 10.625 -17.890625 C 9.613281 -17.890625 8.75 -17.660156 8.03125 -17.203125 C 7.320312 -16.742188 6.738281 -16.171875 6.28125 -15.484375 C 5.820312 -14.804688 5.484375 -14.140625 5.265625 -13.484375 C 5.046875 -12.835938 4.9375 -12.320312 4.9375 -11.9375 Z M 17.046875 -4.640625 C 17.242188 -4.640625 17.40625 -4.566406 17.53125 -4.421875 C 17.664062 -4.273438 17.734375 -4.109375 17.734375 -3.921875 C 17.734375 -3.535156 17.492188 -3.070312 17.015625 -2.53125 C 16.535156 -2 15.929688 -1.492188 15.203125 -1.015625 C 13.773438 -0.0664062 12.15625 0.40625 10.34375 0.40625 C 8.71875 0.40625 7.257812 0.0195312 5.96875 -0.75 C 4.675781 -1.53125 3.644531 -2.628906 2.875 -4.046875 C 2.113281 -5.460938 1.734375 -7.101562 1.734375 -8.96875 C 1.734375 -10.289062 1.953125 -11.570312 2.390625 -12.8125 C 2.828125 -14.0625 3.441406 -15.175781 4.234375 -16.15625 C 5.035156 -17.132812 6.003906 -17.910156 7.140625 -18.484375 C 8.285156 -19.054688 9.546875 -19.34375 10.921875 -19.34375 C 11.960938 -19.34375 12.929688 -19.164062 13.828125 -18.8125 C 14.722656 -18.457031 15.484375 -17.96875 16.109375 -17.34375 C 16.691406 -16.757812 17.175781 -16.066406 17.5625 -15.265625 C 17.945312 -14.472656 18.140625 -13.640625 18.140625 -12.765625 C 18.140625 -11.847656 17.9375 -11.179688 17.53125 -10.765625 C 17.132812 -10.359375 16.40625 -10.15625 15.34375 -10.15625 L 5.078125 -10.15625 C 4.816406 -10.15625 4.6875 -10.035156 4.6875 -9.796875 C 4.6875 -8.878906 4.785156 -7.941406 4.984375 -6.984375 C 5.191406 -6.023438 5.5625 -5.160156 6.09375 -4.390625 C 6.65625 -3.585938 7.332031 -2.921875 8.125 -2.390625 C 8.925781 -1.859375 9.882812 -1.59375 11 -1.59375 C 11.675781 -1.59375 12.300781 -1.679688 12.875 -1.859375 C 13.457031 -2.046875 13.941406 -2.257812 14.328125 -2.5 C 14.859375 -2.8125 15.28125 -3.128906 15.59375 -3.453125 C 15.914062 -3.785156 16.179688 -4.066406 16.390625 -4.296875 C 16.609375 -4.523438 16.828125 -4.640625 17.046875 -4.640625 Z M 17.046875 -4.640625 "/></g></g></g><g fill="#ffffff" fill-opacity="1"><g transform="translate(157.091912, 45.965023)"><g><path d="M 11.828125 -19.34375 C 12.628906 -19.34375 13.171875 -19.109375 13.453125 -18.640625 C 13.742188 -18.179688 13.890625 -17.710938 13.890625 -17.234375 C 13.890625 -16.867188 13.816406 -16.535156 13.671875 -16.234375 C 13.523438 -15.929688 13.257812 -15.78125 12.875 -15.78125 C 12.582031 -15.78125 12.332031 -15.847656 12.125 -15.984375 C 11.925781 -16.117188 11.71875 -16.242188 11.5 -16.359375 C 11.28125 -16.484375 10.988281 -16.546875 10.625 -16.546875 C 10.238281 -16.546875 9.832031 -16.429688 9.40625 -16.203125 C 8.988281 -15.972656 8.585938 -15.539062 8.203125 -14.90625 C 7.859375 -14.351562 7.601562 -13.722656 7.4375 -13.015625 C 7.269531 -12.316406 7.15625 -11.410156 7.09375 -10.296875 C 7.03125 -9.191406 7 -7.742188 7 -5.953125 C 7 -4.691406 7.050781 -3.800781 7.15625 -3.28125 C 7.269531 -2.757812 7.398438 -2.367188 7.546875 -2.109375 C 7.671875 -1.890625 7.847656 -1.710938 8.078125 -1.578125 C 8.304688 -1.441406 8.476562 -1.335938 8.59375 -1.265625 C 8.8125 -1.171875 8.957031 -1.0625 9.03125 -0.9375 C 9.101562 -0.820312 9.140625 -0.703125 9.140625 -0.578125 C 9.140625 -0.359375 9.0625 -0.207031 8.90625 -0.125 C 8.75 -0.0390625 8.550781 0 8.3125 0 L 2.9375 0 C 2.71875 0 2.523438 -0.0390625 2.359375 -0.125 C 2.191406 -0.207031 2.109375 -0.359375 2.109375 -0.578125 C 2.109375 -0.847656 2.289062 -1.078125 2.65625 -1.265625 C 2.84375 -1.367188 3.039062 -1.488281 3.25 -1.625 C 3.457031 -1.769531 3.628906 -1.976562 3.765625 -2.25 C 3.910156 -2.519531 4.03125 -2.890625 4.125 -3.359375 C 4.226562 -3.828125 4.28125 -4.691406 4.28125 -5.953125 C 4.28125 -6.609375 4.28125 -7.328125 4.28125 -8.109375 C 4.28125 -8.890625 4.273438 -9.648438 4.265625 -10.390625 C 4.253906 -11.128906 4.25 -11.753906 4.25 -12.265625 C 4.25 -12.773438 4.25 -13.066406 4.25 -13.140625 C 4.25 -14.828125 4.078125 -15.851562 3.734375 -16.21875 C 3.566406 -16.414062 3.40625 -16.539062 3.25 -16.59375 C 3.09375 -16.65625 2.878906 -16.734375 2.609375 -16.828125 C 2.441406 -16.878906 2.265625 -16.957031 2.078125 -17.0625 C 1.898438 -17.175781 1.8125 -17.332031 1.8125 -17.53125 C 1.8125 -17.71875 1.863281 -17.867188 1.96875 -17.984375 C 2.082031 -18.109375 2.332031 -18.222656 2.71875 -18.328125 C 3.226562 -18.441406 3.640625 -18.546875 3.953125 -18.640625 C 4.265625 -18.742188 4.648438 -18.890625 5.109375 -19.078125 C 5.304688 -19.179688 5.472656 -19.242188 5.609375 -19.265625 C 5.742188 -19.285156 5.859375 -19.296875 5.953125 -19.296875 C 6.429688 -19.296875 6.671875 -19.007812 6.671875 -18.4375 L 6.671875 -15.484375 C 6.671875 -15.421875 6.695312 -15.390625 6.75 -15.390625 C 6.769531 -15.390625 6.804688 -15.4375 6.859375 -15.53125 C 7.097656 -15.988281 7.460938 -16.515625 7.953125 -17.109375 C 8.453125 -17.703125 9.035156 -18.222656 9.703125 -18.671875 C 10.367188 -19.117188 11.078125 -19.34375 11.828125 -19.34375 Z M 11.828125 -19.34375 "/></g></g></g><g fill="#ffffff" fill-opacity="1"><g transform="translate(171.238173, 45.965023)"><g><path d="M 9 -17.890625 C 7.8125 -17.890625 6.890625 -17.4375 6.234375 -16.53125 C 5.585938 -15.625 5.265625 -14.539062 5.265625 -13.28125 C 5.265625 -12.21875 5.441406 -11.222656 5.796875 -10.296875 C 6.160156 -9.378906 6.671875 -8.640625 7.328125 -8.078125 C 7.984375 -7.523438 8.742188 -7.25 9.609375 -7.25 C 10.773438 -7.25 11.6875 -7.695312 12.34375 -8.59375 C 13.007812 -9.488281 13.34375 -10.601562 13.34375 -11.9375 C 13.34375 -13.695312 12.925781 -15.128906 12.09375 -16.234375 C 11.257812 -17.335938 10.226562 -17.890625 9 -17.890625 Z M 14.15625 -2.75 C 15.332031 -2.5625 16.285156 -2.144531 17.015625 -1.5 C 17.742188 -0.863281 18.109375 -0.015625 18.109375 1.046875 C 18.109375 2.117188 17.773438 3.109375 17.109375 4.015625 C 16.441406 4.921875 15.445312 5.644531 14.125 6.1875 C 12.8125 6.726562 11.148438 7 9.140625 7 C 5.992188 7 3.722656 6.40625 2.328125 5.21875 C 1.859375 4.832031 1.515625 4.394531 1.296875 3.90625 C 1.085938 3.425781 0.984375 2.945312 0.984375 2.46875 C 0.984375 1.59375 1.296875 0.84375 1.921875 0.21875 C 2.453125 -0.3125 3.035156 -0.578125 3.671875 -0.578125 C 4.148438 -0.578125 4.390625 -0.394531 4.390625 -0.03125 C 4.390625 0.113281 4.359375 0.234375 4.296875 0.328125 C 4.234375 0.421875 4.15625 0.550781 4.0625 0.71875 C 3.96875 0.863281 3.867188 1.0625 3.765625 1.3125 C 3.671875 1.570312 3.625 1.894531 3.625 2.28125 C 3.625 3.0625 4 3.738281 4.75 4.3125 C 5.3125 4.726562 6.015625 5.03125 6.859375 5.21875 C 7.703125 5.414062 8.609375 5.515625 9.578125 5.515625 C 10.734375 5.515625 11.773438 5.363281 12.703125 5.0625 C 13.640625 4.757812 14.378906 4.332031 14.921875 3.78125 C 15.472656 3.238281 15.75 2.617188 15.75 1.921875 C 15.75 1.191406 15.445312 0.65625 14.84375 0.3125 C 14.238281 -0.0195312 13.378906 -0.234375 12.265625 -0.328125 C 11.492188 -0.421875 10.59375 -0.503906 9.5625 -0.578125 C 8.53125 -0.648438 7.59375 -0.785156 6.75 -0.984375 C 5.832031 -1.203125 5.140625 -1.546875 4.671875 -2.015625 C 4.210938 -2.484375 3.984375 -3.019531 3.984375 -3.625 C 3.984375 -4.28125 4.179688 -4.84375 4.578125 -5.3125 C 4.984375 -5.78125 5.535156 -6.160156 6.234375 -6.453125 C 5.054688 -7.015625 4.109375 -7.8125 3.390625 -8.84375 C 2.679688 -9.882812 2.328125 -11.097656 2.328125 -12.484375 C 2.328125 -13.742188 2.617188 -14.882812 3.203125 -15.90625 C 3.796875 -16.9375 4.625 -17.765625 5.6875 -18.390625 C 6.757812 -19.023438 7.992188 -19.34375 9.390625 -19.34375 C 10.097656 -19.34375 10.84375 -19.226562 11.625 -19 C 12.414062 -18.769531 13.207031 -18.363281 14 -17.78125 C 14.21875 -17.632812 14.410156 -17.5625 14.578125 -17.5625 C 14.847656 -17.5625 15.050781 -17.648438 15.1875 -17.828125 C 15.320312 -18.015625 15.441406 -18.234375 15.546875 -18.484375 C 15.648438 -18.734375 15.800781 -18.945312 16 -19.125 C 16.195312 -19.3125 16.5 -19.40625 16.90625 -19.40625 C 17.269531 -19.40625 17.578125 -19.285156 17.828125 -19.046875 C 18.085938 -18.804688 18.21875 -18.441406 18.21875 -17.953125 C 18.21875 -16.796875 17.414062 -16.21875 15.8125 -16.21875 C 15.71875 -16.21875 15.632812 -16.21875 15.5625 -16.21875 C 15.488281 -16.21875 15.394531 -16.226562 15.28125 -16.25 C 15.664062 -15.644531 15.914062 -15.050781 16.03125 -14.46875 C 16.15625 -13.894531 16.21875 -13.363281 16.21875 -12.875 C 16.21875 -10.914062 15.632812 -9.28125 14.46875 -7.96875 C 13.3125 -6.664062 11.707031 -5.957031 9.65625 -5.84375 C 9.332031 -5.820312 9.054688 -5.800781 8.828125 -5.78125 C 8.597656 -5.769531 8.425781 -5.753906 8.3125 -5.734375 C 7.945312 -5.710938 7.554688 -5.617188 7.140625 -5.453125 C 6.734375 -5.296875 6.53125 -5.003906 6.53125 -4.578125 C 6.53125 -4.179688 6.734375 -3.894531 7.140625 -3.71875 C 7.554688 -3.539062 8.25 -3.390625 9.21875 -3.265625 C 9.894531 -3.191406 10.671875 -3.125 11.546875 -3.0625 C 12.429688 -3 13.300781 -2.894531 14.15625 -2.75 Z M 14.15625 -2.75 "/></g></g></g><g fill="#ffffff" fill-opacity="1"><g transform="translate(190.789028, 45.965023)"><g><path d="M 19.953125 -18.390625 C 19.953125 -18.171875 19.882812 -18.019531 19.75 -17.9375 C 19.625 -17.851562 19.453125 -17.738281 19.234375 -17.59375 C 18.890625 -17.351562 18.613281 -17.128906 18.40625 -16.921875 C 18.207031 -16.710938 17.972656 -16.429688 17.703125 -16.078125 C 17.515625 -15.804688 17.300781 -15.445312 17.0625 -15 C 16.832031 -14.550781 16.625 -14.097656 16.4375 -13.640625 C 16.269531 -13.304688 16.019531 -12.75 15.6875 -11.96875 C 15.363281 -11.195312 14.992188 -10.304688 14.578125 -9.296875 C 14.171875 -8.296875 13.742188 -7.265625 13.296875 -6.203125 C 12.847656 -5.140625 12.4375 -4.140625 12.0625 -3.203125 C 11.6875 -2.273438 11.367188 -1.507812 11.109375 -0.90625 C 10.742188 -0.03125 10.335938 0.859375 9.890625 1.765625 C 9.441406 2.671875 8.925781 3.507812 8.34375 4.28125 C 7.757812 5.050781 7.082031 5.679688 6.3125 6.171875 C 5.851562 6.460938 5.394531 6.671875 4.9375 6.796875 C 4.476562 6.929688 4.066406 7 3.703125 7 C 2.929688 7 2.320312 6.78125 1.875 6.34375 C 1.425781 5.914062 1.203125 5.300781 1.203125 4.5 C 1.203125 4.113281 1.285156 3.78125 1.453125 3.5 C 1.617188 3.21875 1.894531 3.078125 2.28125 3.078125 C 2.59375 3.078125 2.863281 3.191406 3.09375 3.421875 C 3.332031 3.648438 3.59375 3.878906 3.875 4.109375 C 4.164062 4.347656 4.539062 4.46875 5 4.46875 C 5.414062 4.46875 5.796875 4.332031 6.140625 4.0625 C 6.492188 3.800781 6.816406 3.5 7.109375 3.15625 C 7.453125 2.769531 7.78125 2.300781 8.09375 1.75 C 8.40625 1.207031 8.644531 0.734375 8.8125 0.328125 C 8.882812 0.128906 8.921875 0.0078125 8.921875 -0.03125 C 8.921875 -0.0820312 8.898438 -0.179688 8.859375 -0.328125 L 3.765625 -13.640625 C 3.484375 -14.367188 3.210938 -15.050781 2.953125 -15.6875 C 2.703125 -16.332031 2.40625 -16.8125 2.0625 -17.125 C 1.894531 -17.289062 1.734375 -17.414062 1.578125 -17.5 C 1.421875 -17.582031 1.257812 -17.675781 1.09375 -17.78125 C 0.914062 -17.875 0.785156 -17.957031 0.703125 -18.03125 C 0.617188 -18.101562 0.578125 -18.210938 0.578125 -18.359375 C 0.578125 -18.742188 0.925781 -18.9375 1.625 -18.9375 L 6.828125 -18.9375 C 7.359375 -18.9375 7.625 -18.742188 7.625 -18.359375 C 7.625 -18.085938 7.488281 -17.894531 7.21875 -17.78125 C 6.957031 -17.675781 6.691406 -17.523438 6.421875 -17.328125 C 6.148438 -17.140625 6.015625 -16.796875 6.015625 -16.296875 C 6.015625 -16.046875 6.0625 -15.710938 6.15625 -15.296875 C 6.257812 -14.890625 6.429688 -14.347656 6.671875 -13.671875 C 6.816406 -13.265625 7.03125 -12.695312 7.3125 -11.96875 C 7.59375 -11.25 7.898438 -10.460938 8.234375 -9.609375 C 8.578125 -8.765625 8.90625 -7.941406 9.21875 -7.140625 C 9.53125 -6.347656 9.796875 -5.660156 10.015625 -5.078125 C 10.234375 -4.492188 10.378906 -4.117188 10.453125 -3.953125 C 10.472656 -3.878906 10.507812 -3.84375 10.5625 -3.84375 C 10.632812 -3.84375 10.679688 -3.878906 10.703125 -3.953125 C 10.796875 -4.171875 10.984375 -4.632812 11.265625 -5.34375 C 11.546875 -6.0625 11.882812 -6.921875 12.28125 -7.921875 C 12.675781 -8.929688 13.066406 -9.96875 13.453125 -11.03125 C 13.921875 -12.238281 14.289062 -13.234375 14.5625 -14.015625 C 14.84375 -14.804688 14.984375 -15.441406 14.984375 -15.921875 C 14.984375 -16.378906 14.894531 -16.726562 14.71875 -16.96875 C 14.550781 -17.21875 14.351562 -17.398438 14.125 -17.515625 C 13.894531 -17.640625 13.691406 -17.753906 13.515625 -17.859375 C 13.335938 -17.972656 13.25 -18.140625 13.25 -18.359375 C 13.25 -18.742188 13.5625 -18.9375 14.1875 -18.9375 L 18.9375 -18.9375 C 19.613281 -18.9375 19.953125 -18.753906 19.953125 -18.390625 Z M 19.953125 -18.390625 "/></g></g></g><g fill="#ffffff" fill-opacity="1"><g transform="translate(211.210422, 45.965023)"><g/></g></g><g fill="#ffffff" fill-opacity="1"><g transform="translate(219.371729, 45.965023)"><g><path d="M 8.375 -10.375 L 17.234375 -10.375 C 17.429688 -10.375 17.53125 -10.445312 17.53125 -10.59375 C 17.53125 -10.644531 17.503906 -10.726562 17.453125 -10.84375 L 13.203125 -21.84375 C 13.160156 -21.988281 13.113281 -22.0625 13.0625 -22.0625 C 12.988281 -22.0625 12.925781 -21.988281 12.875 -21.84375 L 8.15625 -10.8125 C 8.113281 -10.71875 8.09375 -10.644531 8.09375 -10.59375 C 8.09375 -10.445312 8.1875 -10.375 8.375 -10.375 Z M 25.390625 -1.15625 C 25.535156 -1.082031 25.65625 -1.003906 25.75 -0.921875 C 25.851562 -0.835938 25.90625 -0.710938 25.90625 -0.546875 C 25.90625 -0.179688 25.59375 0 24.96875 0 L 19.8125 0 C 19.28125 0 19.015625 -0.179688 19.015625 -0.546875 C 19.015625 -0.710938 19.066406 -0.835938 19.171875 -0.921875 C 19.285156 -1.003906 19.414062 -1.082031 19.5625 -1.15625 C 19.820312 -1.28125 20.039062 -1.429688 20.21875 -1.609375 C 20.40625 -1.796875 20.5 -2.046875 20.5 -2.359375 C 20.5 -2.597656 20.4375 -2.9375 20.3125 -3.375 C 20.195312 -3.8125 19.96875 -4.441406 19.625 -5.265625 L 18.328125 -8.5625 C 18.253906 -8.78125 18.054688 -8.890625 17.734375 -8.890625 L 7.65625 -8.890625 C 7.4375 -8.890625 7.289062 -8.789062 7.21875 -8.59375 C 6.664062 -7.289062 6.210938 -6.164062 5.859375 -5.21875 C 5.503906 -4.28125 5.328125 -3.507812 5.328125 -2.90625 C 5.328125 -2.46875 5.410156 -2.113281 5.578125 -1.84375 C 5.753906 -1.582031 6.0625 -1.351562 6.5 -1.15625 C 6.8125 -1.007812 6.96875 -0.816406 6.96875 -0.578125 C 6.96875 -0.191406 6.664062 0 6.0625 0 L 1.375 0 C 0.726562 0 0.40625 -0.171875 0.40625 -0.515625 C 0.40625 -0.722656 0.472656 -0.878906 0.609375 -0.984375 C 0.753906 -1.097656 0.925781 -1.21875 1.125 -1.34375 C 1.457031 -1.5625 1.734375 -1.78125 1.953125 -2 C 2.171875 -2.21875 2.390625 -2.484375 2.609375 -2.796875 C 3.097656 -3.492188 3.535156 -4.289062 3.921875 -5.1875 C 4.035156 -5.476562 4.285156 -6.054688 4.671875 -6.921875 C 5.066406 -7.796875 5.539062 -8.847656 6.09375 -10.078125 C 6.65625 -11.316406 7.242188 -12.632812 7.859375 -14.03125 C 8.472656 -15.4375 9.082031 -16.820312 9.6875 -18.1875 C 10.289062 -19.5625 10.847656 -20.816406 11.359375 -21.953125 C 11.867188 -23.085938 12.28125 -24.007812 12.59375 -24.71875 C 12.90625 -25.4375 13.070312 -25.832031 13.09375 -25.90625 C 13.164062 -26.09375 13.300781 -26.1875 13.5 -26.1875 L 14.265625 -26.1875 C 14.472656 -26.1875 14.613281 -26.09375 14.6875 -25.90625 C 14.71875 -25.832031 14.867188 -25.425781 15.140625 -24.6875 C 15.421875 -23.945312 15.789062 -22.976562 16.25 -21.78125 C 16.707031 -20.582031 17.207031 -19.269531 17.75 -17.84375 C 18.300781 -16.414062 18.847656 -14.988281 19.390625 -13.5625 C 19.929688 -12.132812 20.4375 -10.8125 20.90625 -9.59375 C 21.382812 -8.375 21.773438 -7.363281 22.078125 -6.5625 C 22.378906 -5.769531 22.554688 -5.3125 22.609375 -5.1875 C 22.992188 -4.289062 23.3125 -3.585938 23.5625 -3.078125 C 23.820312 -2.578125 24.09375 -2.15625 24.375 -1.8125 C 24.570312 -1.644531 24.765625 -1.503906 24.953125 -1.390625 C 25.148438 -1.285156 25.296875 -1.207031 25.390625 -1.15625 Z M 25.390625 -1.15625 "/></g></g></g><g fill="#ffffff" fill-opacity="1"><g transform="translate(245.778076, 45.965023)"><g><path d="M 8.453125 -1.265625 C 8.597656 -1.191406 8.726562 -1.109375 8.84375 -1.015625 C 8.96875 -0.921875 9.03125 -0.773438 9.03125 -0.578125 C 9.03125 -0.191406 8.691406 0 8.015625 0 L 2.96875 0 C 2.289062 0 1.953125 -0.191406 1.953125 -0.578125 C 1.953125 -0.773438 2.015625 -0.914062 2.140625 -1 C 2.265625 -1.082031 2.410156 -1.171875 2.578125 -1.265625 C 3.015625 -1.484375 3.363281 -1.785156 3.625 -2.171875 C 3.789062 -2.441406 3.910156 -2.804688 3.984375 -3.265625 C 4.054688 -3.722656 4.09375 -4.582031 4.09375 -5.84375 L 4.09375 -20.421875 C 4.09375 -21.390625 4.066406 -22.132812 4.015625 -22.65625 C 3.972656 -23.175781 3.890625 -23.5625 3.765625 -23.8125 C 3.648438 -24.070312 3.472656 -24.273438 3.234375 -24.421875 C 2.941406 -24.609375 2.6875 -24.742188 2.46875 -24.828125 C 2.25 -24.921875 2.140625 -25.085938 2.140625 -25.328125 C 2.140625 -25.710938 2.441406 -25.90625 3.046875 -25.90625 L 7.953125 -25.90625 C 8.210938 -25.90625 8.429688 -25.863281 8.609375 -25.78125 C 8.796875 -25.695312 8.890625 -25.546875 8.890625 -25.328125 C 8.890625 -25.085938 8.773438 -24.921875 8.546875 -24.828125 C 8.316406 -24.742188 8.066406 -24.609375 7.796875 -24.421875 C 7.554688 -24.273438 7.367188 -24.070312 7.234375 -23.8125 C 7.097656 -23.5625 7.003906 -23.175781 6.953125 -22.65625 C 6.910156 -22.132812 6.890625 -21.390625 6.890625 -20.421875 L 6.890625 -5.84375 C 6.890625 -4.582031 6.929688 -3.722656 7.015625 -3.265625 C 7.097656 -2.804688 7.210938 -2.441406 7.359375 -2.171875 C 7.609375 -1.835938 7.972656 -1.535156 8.453125 -1.265625 Z M 8.453125 -1.265625 "/></g></g></g></svg>